<svg xmlns="http://www.w3.org/2000/svg" width="3000" height="3000" fill="none" viewBox="0 0 3000 3000" id="employee-analyzes-profit-growth"><path fill="#FF9F6B" d="M2295.24 2269.22C2253.46 2241.62 2233.6 2183.38 2249.48 2134.92C2255.87 2115.47 2267.29 2097.6 2269.69 2077.27C2272.1 2056.94 2260.32 2032.27 2240.4 2031.86C2216.08 2031.39 2200.32 2066.02 2176.12 2063.26C2155.26 2060.86 2144.95 2031.86 2124.15 2028.93C2109.56 2026.88 2096.72 2038.66 2087.53 2050.43C2078.33 2062.27 2069.13 2075.86 2054.95 2079.96C2022.31 2089.34 1993.37 2042.17 1960.55 2050.84C1947.08 2054.42 1937.17 2067.54 1935.01 2081.66C1932.84 2095.78 1937.7 2110.37 1946.08 2121.8C1955.57 2134.75 1969.17 2143.89 1980.12 2155.49C2008.95 2186.02 2017.45 2235 2000.69 2273.97C1989.26 2300.51 1968.05 2321.02 1949.01 2342.46C1925.4 2369.12 1904.07 2399.07 1894.17 2433.64C1884.26 2468.21 1887.37 2508.23 1908.87 2536.7C1931.72 2566.88 1970.46 2579.07 2007.31 2584.28C2071.53 2593.36 2136.8 2586.39 2200.79 2575.96C2223.93 2572.21 2247.37 2567.87 2268.46 2557.33C2311.76 2535.71 2340.42 2489.24 2348.62 2440.37C2356.82 2391.57 2346.45 2340.94 2327.17 2295.53C2324.89 2290.14 2322.37 2284.69 2318.5 2280.3C2311.18 2272.03 2298.58 2266.76 2295.24 2269.22Z"></path><path fill="#203752" d="M1992.83 2186.49C2078.97 2193.93 2166.15 2201.02 2251.76 2184.91C2259.2 2183.5 2256.15 2172.19 2248.83 2173.54C2164.28 2189.48 2077.97 2182.15 1992.95 2174.77C1985.39 2174.12 1985.39 2185.84 1992.83 2186.49Z"></path><path fill="#203752" d="M2243.2 2159.42C2170.54 2201.95 2086.11 2221.52 2002.14 2214.9C1994.59 2214.32 1994.59 2226.04 2002.09 2226.62C2087.98 2233.42 2174.76 2213.09 2249.06 2169.55C2255.56 2165.74 2249.7 2155.61 2243.2 2159.42Z"></path><path fill="#203752" d="M2122.56 2205.35C2106.86 2183.5 2080.08 2159.3 2051.02 2172.01C2037.72 2177.82 2031.39 2191.94 2035.14 2205.88C2038.25 2217.54 2047.56 2226.16 2058.46 2230.61C2087.23 2242.33 2114.01 2222.58 2136.98 2207.46C2149.93 2198.97 2164.63 2190 2180.69 2190.94C2193.23 2191.64 2208.52 2199.26 2209.28 2213.5C2210.39 2233.89 2180.92 2233.71 2167.39 2232.19C2150.1 2230.32 2133.81 2223.28 2121.74 2210.69C2118.52 2207.35 2113.3 2209.34 2111.96 2213.32C2101 2246.37 2083.42 2276.78 2060.1 2302.68C2055.06 2308.25 2063.38 2316.51 2068.42 2310.88C2093.15 2283.46 2111.66 2251.41 2123.27 2216.37C2119.98 2217.25 2116.76 2218.13 2113.48 2219.01C2132.64 2238.99 2162.46 2247.42 2189.59 2243.79C2202.31 2242.09 2215.38 2235.53 2219.71 2222.58C2223.75 2210.63 2218.13 2197.44 2208.81 2189.59C2186.61 2170.9 2157.07 2180.8 2135.34 2194.57C2113.25 2208.58 2079.91 2236.94 2053.95 2214.5C2047.62 2209.05 2043.7 2199.91 2046.74 2191.64C2049.91 2183.03 2060.1 2180.16 2068.36 2180.51C2087.58 2181.33 2101.94 2196.62 2112.43 2211.27C2116.76 2217.31 2126.96 2211.51 2122.56 2205.35Z"></path><path fill="#203752" d="M2110.55 2226.68C2115.41 2263.89 2138.97 2298.23 2172.42 2315.45C2179.1 2318.91 2184.96 2308.71 2178.23 2305.26C2147.23 2289.32 2126.37 2258.15 2121.92 2223.75C2121.51 2220.59 2117.58 2218.89 2114.77 2219.53C2111.37 2220.41 2110.14 2223.58 2110.55 2226.68Z"></path><path fill="#31DECD" d="M1938.63 2543.5C1852.56 2535.65 1766.02 2535.3 1679.65 2534.94C1630.14 2534.77 1580.39 2534.59 1531.35 2541.68C1540.02 2490.71 1537.79 2439.85 1525.78 2391.51C1662.66 2403.23 1797.78 2403.05 1930.67 2388.58C1923.52 2440.2 1925.8 2493.17 1938.63 2543.5Z"></path><path fill="#203752" d="M1698.4 2388.69C1694.47 2388.57 1691.43 2392.15 1692.01 2396.13C1698.75 2443.89 1695.06 2492.58 1694.53 2540.92C1694.53 2542.85 1694.59 2545.02 1695.94 2546.31C1697.11 2547.42 1698.81 2547.6 1700.39 2547.71C1714.92 2548.71 1729.51 2549.65 1744.04 2550.64C1747.38 2550.88 1751.37 2550.82 1753.3 2548.01C1754.71 2545.96 1754.53 2543.26 1754.3 2540.74C1750.02 2492.11 1759.69 2443.07 1756.58 2394.32C1756.47 2392.27 1756.17 2389.98 1754.47 2388.87C1753.42 2388.16 1752.01 2388.16 1750.72 2388.22C1733.67 2388.63 1716.56 2389.04 1698.4 2388.69Z"></path><path fill="#31DECD" d="M1831.76 2609.18C1745.68 2601.32 1659.14 2600.97 1572.77 2600.62C1523.26 2600.45 1473.52 2600.27 1424.47 2607.36C1433.15 2556.38 1430.92 2505.52 1418.91 2457.18C1555.78 2468.9 1687.74 2483.55 1820.63 2469.08C1813.54 2520.7 1818.99 2558.84 1831.76 2609.18Z"></path><path fill="#203752" d="M1591.58 2454.31C1587.65 2454.19 1584.61 2457.77 1585.19 2461.75C1591.93 2509.51 1588.24 2558.2 1587.71 2606.54C1587.71 2608.47 1587.77 2610.64 1589.12 2611.93C1590.29 2613.04 1591.99 2613.22 1593.57 2613.34C1608.1 2614.33 1622.69 2615.27 1637.22 2616.27C1640.56 2616.5 1644.55 2616.44 1646.48 2613.63C1647.89 2611.58 1647.71 2608.88 1647.48 2606.36C1643.2 2557.73 1652.87 2508.69 1649.76 2459.94C1649.65 2457.89 1649.35 2455.6 1647.65 2454.49C1646.6 2453.78 1645.19 2453.78 1643.9 2453.84C1626.85 2454.31 1609.74 2454.72 1591.58 2454.31Z"></path><path fill="#31DECD" d="M2092.62 2617.55C2006.54 2609.7 1920 2609.35 1833.63 2609C1784.12 2608.82 1734.37 2608.65 1685.33 2615.74C1694 2564.76 1691.78 2513.9 1679.76 2465.56C1816.64 2477.28 1951.76 2477.1 2084.65 2462.63C2077.5 2514.25 2079.78 2567.22 2092.62 2617.55Z"></path><path fill="#203752" d="M1852.44 2462.76C1848.51 2462.64 1845.46 2466.21 1846.05 2470.2 1852.79 2517.95 1849.1 2566.64 1848.57 2614.98 1848.57 2616.92 1848.63 2619.09 1849.98 2620.37 1851.15 2621.49 1852.85 2621.66 1854.43 2621.78 1868.96 2622.78 1883.55 2623.71 1898.08 2624.71 1901.42 2624.95 1905.41 2624.89 1907.34 2622.07 1908.75 2620.02 1908.57 2617.33 1908.34 2614.81 1904.06 2566.18 1913.73 2517.13 1910.62 2468.38 1910.5 2466.33 1910.21 2464.05 1908.51 2462.93 1907.46 2462.23 1906.05 2462.23 1904.76 2462.29 1887.71 2462.7 1870.54 2463.17 1852.44 2462.76zM1670.45 2474.83C1680.7 2519.12 1691.13 2565.53 1679.65 2610.71 1677.77 2618.03 1689.08 2621.08 1690.96 2613.75 1703.03 2566.58 1692.54 2518.24 1681.82 2471.9 1680.06 2464.46 1668.75 2467.44 1670.45 2474.83z"></path><path fill="#203752" d="M1688.55 2498.55C1720.19 2495.21 1752.19 2495.62 1783.71 2500.08 1791.09 2501.13 1794.2 2489.82 1786.76 2488.77 1754.18 2484.14 1721.37 2483.38 1688.61 2486.83 1681.17 2487.65 1681.05 2499.37 1688.55 2498.55zM1851.03 2522.29C1814.82 2514.85 1777.67 2512.97 1740.93 2516.9 1733.49 2517.72 1733.38 2529.44 1740.88 2528.62 1776.68 2524.75 1812.77 2526.33 1848.04 2533.6 1855.37 2535.12 1858.47 2523.81 1851.03 2522.29zM1694.83 2562.72C1731.98 2558.38 1769.42 2557.38 1806.8 2559.79 1814.36 2560.26 1814.36 2548.54 1806.86 2548.07 1769.53 2545.67 1732.09 2546.66 1694.89 2551 1687.5 2551.88 1687.39 2563.6 1694.83 2562.72zM1852.91 2578.13C1821.73 2574.73 1790.33 2574.38 1759.1 2577.08 1751.66 2577.72 1751.54 2589.44 1759.04 2588.79 1790.27 2586.1 1821.67 2586.45 1852.85 2589.85 1860.35 2590.67 1860.29 2578.95 1852.91 2578.13zM1907.75 2478.93C1966.05 2477.82 2024.29 2473.95 2082.24 2467.39 2089.68 2466.57 2089.8 2454.85 2082.3 2455.67 2024.35 2462.23 1966.11 2466.04 1907.81 2467.21 1900.25 2467.39 1900.19 2479.11 1907.75 2478.93zM1907.75 2508.87C1937.7 2512.56 1967.81 2512.15 1997.7 2508.17 2000.86 2507.76 2002.62 2503.83 2001.91 2501.02 2001.09 2497.62 1997.87 2496.39 1994.77 2496.8 1965.94 2500.67 1936.7 2500.67 1907.81 2497.09 1904.65 2496.68 1901.95 2500.02 1901.89 2502.89 1901.84 2506.47 1904.65 2508.52 1907.75 2508.87zM1901.48 2586.68C1938.11 2589.96 1974.84 2588.91 2011.29 2583.69 2018.73 2582.64 2015.74 2571.27 2008.36 2572.32 1973.03 2577.36 1937.17 2578.12 1901.6 2574.96 1893.98 2574.26 1893.98 2585.98 1901.48 2586.68zM2075.98 2530.43C2040.47 2527.21 2004.73 2527.15 1969.22 2530.31 1961.78 2530.96 1961.66 2542.68 1969.16 2542.03 2004.67 2538.87 2040.41 2538.93 2075.92 2542.15 2083.42 2542.85 2083.42 2531.13 2075.98 2530.43zM1648.59 2474.83C1659.37 2475.18 1670.15 2474.77 1680.88 2473.54 1683.92 2473.19 1686.91 2471.14 1686.8 2467.74 1686.68 2464.87 1684.22 2461.47 1680.99 2461.82 1670.27 2462.99 1659.49 2463.4 1648.71 2463.11 1645.66 2462.99 1642.67 2465.86 1642.79 2468.91 1642.91 2472.19 1645.31 2474.71 1648.59 2474.83zM1596.5 2465.5C1535.8 2463.98 1475.15 2460.58 1414.63 2455.37 1407.07 2454.72 1407.07 2466.44 1414.57 2467.09 1475.1 2472.3 1535.74 2475.7 1596.44 2477.22 1604 2477.4 1604 2465.68 1596.5 2465.5zM1502.17 2577.84C1530.59 2576.9 1559.01 2577.37 1587.37 2579.19 1594.93 2579.65 1594.93 2567.94 1587.43 2567.47 1559.07 2565.65 1530.65 2565.24 1502.23 2566.12 1494.67 2566.35 1494.61 2578.07 1502.17 2577.84zM1435.13 2537.93C1463.55 2538.69 1491.97 2540.04 1520.39 2542.03 1527.95 2542.55 1527.95 2530.84 1520.45 2530.31 1492.09 2528.37 1463.67 2526.97 1435.19 2526.21 1427.63 2525.97 1427.63 2537.69 1435.13 2537.93zM1588.25 2501.42C1558.42 2502.89 1528.54 2501.89 1498.89 2498.55 1491.39 2497.73 1491.39 2509.45 1498.83 2510.27 1528.48 2513.61 1558.36 2514.6 1588.19 2513.14 1595.69 2512.79 1595.81 2501.07 1588.25 2501.42zM1627.56 2428.48C1655.92 2431.41 1684.45 2430.7 1712.63 2426.6 1715.8 2426.13 1717.56 2422.27 1716.85 2419.45 1716.03 2416.11 1712.81 2414.83 1709.7 2415.24 1682.52 2419.16 1654.92 2419.57 1627.61 2416.7 1620.11 2416 1620.11 2427.72 1627.56 2428.48zM1754.94 2447.23C1778.85 2449.63 1802.93 2449.92 1826.95 2448.11 1834.45 2447.52 1834.57 2435.8 1827.01 2436.39 1803.05 2438.21 1778.96 2437.91 1755 2435.51 1747.5 2434.75 1747.5 2446.47 1754.94 2447.23zM1920.65 2410.95C1891.23 2417.28 1860.77 2418.57 1830.94 2414.47 1827.78 2414.06 1824.67 2415.29 1823.79 2418.63 1823.03 2421.38 1824.79 2425.37 1827.95 2425.78 1859.89 2430.17 1892.11 2429.12 1923.64 2422.32 1931.02 2420.74 1928.03 2409.37 1920.65 2410.95zM1540.08 2444.24C1565.21 2448.34 1590.58 2451.33 1616.01 2453.2 1623.57 2453.73 1623.57 2442.01 1616.07 2441.48 1591.64 2439.72 1567.32 2436.85 1543.12 2432.93 1540.02 2432.4 1536.8 2433.81 1535.98 2437.09 1535.15 2439.84 1536.91 2443.71 1540.08 2444.24z"></path><path fill="#203752" d="M1681 2471.89C1739.13 2478.69 1797.66 2479.98 1856.02 2475.76C1863.52 2475.23 1863.64 2463.51 1856.08 2464.04C1797.72 2468.26 1739.13 2466.91 1681.06 2460.17C1673.56 2459.29 1673.62 2471.07 1681 2471.89Z"></path><path fill="#31DECD" d="M2147.16 2406.56C2089.62 2396.42 2029.51 2461.34 2029.51 2547.3C2029.51 2633.26 2150.97 2656.17 2193.16 2588.32C2235.35 2520.52 2237.63 2422.55 2147.16 2406.56Z"></path><path fill="#31DECD" d="M2283.58 2263.01C2283.58 2263.01 2193.64 2268.51 2167.91 2274.84C2142.13 2281.17 2172.13 2537.34 2183.38 2591.42C2183.38 2591.42 2213.09 2601.44 2281.29 2598.63C2349.5 2595.82 2368.07 2582.46 2368.07 2569.92L2427.07 2564.29C2427.07 2564.29 2422.27 2581.46 2445.41 2581.46C2468.56 2581.46 2570.63 2577.3 2587.5 2576.31C2604.44 2575.31 2611.94 2569.45 2612.82 2561.89C2612.82 2561.89 2704.05 2564.88 2702.41 2538.81C2702.41 2538.81 2796.45 2547.6 2796.45 2501.42C2796.45 2455.19 2799.5 2237.81 2799.5 2203.18C2799.5 2168.55 2785.38 2168.49 2750.51 2167.2C2715.65 2165.92 2643.81 2170.02 2643.81 2170.02C2643.81 2170.02 2641.18 2016.62 2641.18 1979.82C2641.18 1943.03 2635.49 1910.27 2600.16 1907.93C2564.83 1905.58 2485.73 1907.22 2459.07 1907.22C2432.41 1907.22 2422.45 1922.75 2422.45 1962.13C2422.45 2001.5 2423.85 2072.22 2423.85 2072.22C2423.85 2072.22 2371.06 2073.1 2337.43 2073.1C2303.79 2073.1 2277.07 2084.94 2278.25 2117.34C2279.48 2149.86 2283.58 2263.01 2283.58 2263.01Z"></path><path fill="#203752" d="M2026.58 2565.41C2033.5 2601.73 2062.27 2624.59 2097.31 2632.14C2134.81 2640.23 2174.47 2626.7 2198.15 2596.05C2211.15 2579.18 2218.89 2558.02 2223.46 2537.4C2227.85 2517.48 2229.14 2496.73 2225.51 2476.58C2218.42 2437.44 2189.18 2405.21 2149.22 2398.77C2105.45 2391.73 2062.27 2418.75 2044.34 2458.41C2041.29 2465.21 2051.43 2471.13 2054.53 2464.21C2068.71 2432.75 2100.53 2408.67 2135.92 2409.25C2171.72 2409.84 2201.9 2434.68 2211.68 2468.67C2221.58 2503.06 2214.32 2543.49 2197.91 2574.78C2181.45 2606.13 2147.17 2626.23 2111.49 2622.65C2076.27 2619.08 2044.98 2598.75 2038.07 2562.48C2036.49 2555.04 2025.18 2558.02 2026.58 2565.41Z"></path><path fill="#203752" d="M2030.98 2489.88C2025.3 2503.94 2022.78 2519.3 2023.54 2534.41 2023.72 2537.58 2026.06 2540.27 2029.34 2540.33 2032.39 2540.33 2035.38 2537.69 2035.26 2534.53 2034.56 2520.23 2036.96 2506.23 2042.35 2492.99 2043.52 2490.06 2041 2486.54 2038.19 2485.84 2034.79 2484.84 2032.21 2486.95 2030.98 2489.88zM2205.94 2274.61C2233.24 2270.57 2260.78 2268.11 2288.44 2267.4 2300.98 2267.05 2313.81 2266.58 2326.35 2267.64 2335.25 2268.34 2346.03 2270.22 2352.3 2277.25 2360.74 2286.68 2357.28 2302.27 2356.64 2313.75 2355.88 2327.7 2355.35 2341.58 2355.12 2355.53 2354.65 2382.95 2355.29 2410.31 2356.99 2437.68 2358.87 2468.38 2362.15 2499.02 2366.6 2529.49 2367.71 2536.93 2379.02 2533.95 2377.97 2526.56 2369.24 2467.15 2365.61 2407.03 2367.07 2346.97 2367.42 2332.15 2368.18 2317.32 2369.06 2302.5 2369.77 2291.19 2369.41 2279.41 2361.8 2270.33 2347.68 2253.52 2321.07 2255.39 2301.44 2255.51 2268.52 2255.74 2235.64 2258.5 2203.07 2263.3 2195.51 2264.41 2198.55 2275.72 2205.94 2274.61zM2365.67 2552.05C2365.9 2557.86 2366.2 2564.12 2364.09 2569.69 2361.16 2577.31 2352.89 2578.6 2345.86 2580.59 2330.51 2584.93 2314.93 2588.21 2299.16 2590.43 2266.88 2595 2233.89 2594.95 2201.61 2590.55 2194.22 2589.55 2191.12 2600.86 2198.56 2601.86 2235.71 2606.96 2273.21 2606.66 2310.18 2600.51 2327.23 2597.7 2346.33 2594.71 2362.21 2587.5 2376.27 2581.12 2377.91 2565.88 2377.39 2552.11 2377.15 2544.61 2365.43 2544.5 2365.67 2552.05zM2452.38 2434.58C2439.2 2433.87 2424.31 2435.92 2419.45 2450.16 2413.47 2467.86 2415.7 2489.36 2416.4 2507.7 2417.11 2527.04 2416.4 2547.13 2418.87 2566.35 2421.09 2583.46 2435.51 2587.62 2450.74 2586.63 2458.24 2586.16 2458.36 2574.38 2450.8 2574.91 2445.76 2575.26 2439.02 2576.02 2434.57 2572.97 2428.83 2569.05 2430.06 2559.15 2429.82 2553.05 2429.24 2537.94 2428.65 2522.82 2428.12 2507.76 2427.6 2493.58 2427.01 2479.28 2428.59 2465.1 2429.29 2458.54 2429.65 2450.51 2436.56 2447.64 2441.42 2445.65 2447.17 2446 2452.32 2446.29 2459.88 2446.7 2459.88 2434.99 2452.38 2434.58zM2482.38 2445.06C2508.16 2445.7 2533.94 2446.34 2559.78 2446.99 2570.44 2447.28 2583.63 2445.58 2593.94 2448.98 2603.96 2452.26 2605.66 2462.69 2605.78 2471.95 2606.19 2495.62 2603.78 2519.59 2602.73 2543.26 2602.5 2549 2603.08 2555.5 2601.91 2561.13 2600.8 2566.52 2592.71 2566.46 2588.2 2567.22 2575.31 2569.45 2562.3 2570.09 2549.23 2569.68 2541.68 2569.45 2541.62 2581.17 2549.18 2581.4 2560.31 2581.75 2571.32 2581.29 2582.34 2579.88 2590.66 2578.83 2602.91 2578.47 2609.29 2572.15 2615.85 2565.64 2614.04 2552.99 2614.45 2544.67 2614.98 2532.71 2615.5 2520.76 2616.09 2508.86 2616.62 2497.91 2617.32 2486.89 2617.55 2475.88 2617.73 2467.73 2617.2 2459.12 2613.63 2451.68 2604.66 2432.93 2581.23 2435.8 2563.94 2435.39 2536.81 2434.68 2509.68 2434.04 2482.55 2433.34 2474.88 2433.16 2474.82 2444.88 2482.38 2445.06z"></path><path fill="#203752" d="M2541.27 2319.78C2543.09 2358.75 2544.44 2397.77 2545.43 2436.8 2545.61 2444.35 2557.33 2444.41 2557.15 2436.85 2556.15 2397.83 2554.81 2358.81 2552.99 2319.84 2552.64 2312.28 2540.92 2312.23 2541.27 2319.78zM2556.44 2300.22C2566.11 2289.79 2583.1 2291.78 2595.99 2291.84 2612.99 2291.9 2629.98 2292.37 2646.97 2293.36 2660.33 2294.12 2681.72 2291.19 2686.7 2306.9 2689.45 2315.51 2689.16 2325.3 2689.68 2334.26 2692.26 2378.5 2694.43 2422.8 2696.01 2467.09 2696.83 2489.07 2697.59 2511.04 2697.59 2533.01 2697.59 2540.57 2709.31 2540.63 2709.31 2533.07 2709.25 2485.61 2706.68 2438.09 2704.39 2390.69 2703.34 2369.18 2702.22 2347.74 2700.88 2326.29 2700.23 2315.22 2699.94 2303.09 2693.02 2293.83 2684.18 2281.94 2667.48 2283.05 2654.24 2282.17 2632.91 2280.76 2611.52 2280.12 2590.19 2280.24 2575.31 2280.3 2558.9 2280.35 2548.06 2292.13 2542.97 2297.52 2551.29 2305.78 2556.44 2300.22zM2271.56 2141.31C2274.2 2180.4 2275.66 2219.54 2276.02 2258.68 2276.07 2266.24 2287.79 2266.3 2287.73 2258.74 2287.44 2219.6 2285.98 2180.46 2283.28 2141.37 2282.81 2133.87 2271.09 2133.76 2271.56 2141.31zM2322.54 2080.72C2345.5 2079.14 2368.53 2078.61 2391.5 2079.19 2412.48 2079.72 2434.92 2079.72 2455.48 2084.41 2463.1 2086.17 2470.95 2088.92 2476.46 2094.72 2483.96 2102.57 2485.31 2113.65 2485.31 2124.08 2485.31 2137.67 2483.79 2151.26 2483.14 2164.86 2480.27 2226.85 2479.98 2289.02 2479.8 2351.07 2479.74 2376.73 2479.8 2402.4 2479.8 2428.06 2479.8 2435.62 2491.52 2435.68 2491.52 2428.12 2491.52 2371.93 2491.4 2315.68 2492.28 2259.49 2492.75 2227.38 2493.39 2195.33 2494.98 2163.28 2496.44 2132.69 2505.17 2091.5 2469.96 2076.79 2449.63 2068.3 2424.66 2068.88 2403.1 2068 2376.27 2066.89 2349.43 2067.3 2322.65 2069.12 2315.09 2069.47 2314.98 2081.19 2322.54 2080.72z"></path><path fill="#203752" d="M2417.28 1984.86C2417.92 2014.69 2417.51 2044.57 2416.05 2074.39 2415.7 2081.95 2427.42 2081.95 2427.77 2074.45 2429.23 2044.63 2429.64 2014.8 2429 1984.92 2428.88 1977.36 2417.16 1977.3 2417.28 1984.86zM2437.56 1925.21C2446.29 1913.26 2465.39 1915.13 2478.34 1915.08 2497.44 1914.96 2516.54 1915.08 2535.64 1915.37 2554.75 1915.66 2573.85 1916.07 2592.95 1916.83 2601.68 1917.19 2611.17 1917.42 2618.67 1922.52 2624.18 1926.27 2627.75 1932.07 2630.04 1938.16 2635.14 1951.81 2634.9 1966.87 2635.25 1981.17 2635.78 2000.56 2636.37 2019.96 2637.01 2039.35 2638.24 2078.02 2639.59 2116.64 2640.06 2155.31 2640.64 2198.85 2640.18 2242.44 2637.66 2285.97 2637.25 2293.53 2648.96 2293.53 2649.37 2286.03 2654.3 2200.95 2651.19 2115.82 2648.44 2030.68 2647.79 2009.94 2647.44 1989.2 2646.62 1968.51 2646.03 1954.39 2644.57 1939.39 2637.66 1926.79 2629.86 1912.61 2616.21 1906.76 2600.62 1905.47 2580.53 1903.83 2560.14 1904.06 2540.04 1903.71 2516.66 1903.3 2493.22 1903.06 2469.84 1903.42 2453.85 1903.65 2437.5 1905.64 2427.42 1919.41 2422.97 1925.45 2433.16 1931.25 2437.56 1925.21z"></path><path fill="#203752" d="M2656.7 2174.29C2694.03 2170.66 2731.99 2171.36 2769.08 2177.34C2776.41 2178.51 2784.44 2179.8 2789.59 2185.6C2794.57 2191.11 2796.21 2199.2 2796.92 2206.34C2798.67 2224.51 2795.92 2242.97 2793.99 2261.01C2786.13 2335.02 2791.58 2409.31 2790.76 2483.49C2790.7 2488.83 2790.59 2494.1 2790.47 2499.43C2790.35 2503.59 2790.76 2508.57 2789.3 2512.61C2786.25 2520.76 2772.07 2522.52 2764.63 2524.45C2745 2529.61 2724.96 2531.89 2704.69 2531.72C2697.13 2531.66 2697.07 2543.38 2704.63 2543.43C2724.03 2543.61 2743.42 2541.56 2762.35 2537.11C2776.7 2533.71 2797.33 2530.6 2801.13 2513.67C2802.89 2505.88 2802.31 2497.38 2802.42 2489.41C2802.6 2478.34 2802.66 2467.2 2802.54 2456.13C2802.42 2435.39 2801.95 2414.59 2801.66 2393.84C2801.02 2351.95 2800.9 2309.94 2805 2268.16C2806.94 2248.42 2810.1 2228.49 2808.81 2208.63C2807.87 2194.1 2803.48 2178.34 2789.65 2171.13C2780.92 2166.56 2770.49 2165.8 2760.82 2164.51C2749.92 2163.04 2739.03 2161.99 2728.07 2161.29C2704.28 2159.82 2680.49 2160.41 2656.76 2162.69C2649.32 2163.34 2649.2 2175.06 2656.7 2174.29Z"></path><path fill="#203752" d="M2614.92 2568.87C2634.31 2569.28 2653.65 2568.16 2672.93 2565.53 2680.84 2564.47 2689.16 2563.18 2695.9 2558.61 2702.81 2553.93 2706.56 2546.78 2709.84 2539.39 2712.89 2532.6 2702.75 2526.68 2699.65 2533.59 2696.83 2539.92 2694.02 2546.6 2687.63 2549.94 2681.31 2553.28 2673.4 2553.81 2666.42 2554.69 2649.37 2556.8 2632.2 2557.56 2615.04 2557.15 2607.42 2556.97 2607.36 2568.69 2614.92 2568.87zM2441.61 2536.23C2491.29 2540.92 2541.22 2541.15 2590.96 2536.82 2598.4 2536.17 2598.52 2524.45 2591.02 2525.1 2541.33 2529.43 2491.35 2529.2 2441.67 2524.51 2434.11 2523.75 2434.11 2535.47 2441.61 2536.23zM2435.04 2485.61C2484.02 2489.18 2533.12 2490.23 2582.17 2488.89 2589.73 2488.65 2589.78 2476.93 2582.23 2477.17 2533.12 2478.57 2484.08 2477.46 2435.1 2473.89 2427.54 2473.36 2427.54 2485.08 2435.04 2485.61zM2175.12 2473.88C2163.16 2462.99 2146.52 2457.54 2130.47 2460.94 2116.76 2463.86 2103.98 2476.29 2109.08 2491.23 2114.88 2508.04 2134.63 2511.33 2146.29 2522.69 2157.54 2533.65 2160.06 2553.34 2142.48 2559.2 2125.49 2564.88 2101.46 2557.44 2101.11 2536.58 2101 2529.02 2089.28 2528.96 2089.39 2536.52 2089.69 2553.57 2102.34 2567.63 2118.69 2571.5 2133.93 2575.08 2154.32 2571.85 2163.16 2557.56 2172.13 2543.08 2165.39 2524.63 2153.96 2513.79 2147.7 2507.81 2140.2 2503.83 2132.7 2499.61 2126.6 2496.21 2116.82 2489.53 2120.21 2481.09 2123.2 2473.77 2133.22 2471.6 2140.2 2471.6 2150.1 2471.6 2159.53 2475.47 2166.86 2482.15 2172.42 2487.3 2180.68 2478.98 2175.12 2473.88z"></path><path fill="#203752" d="M2154.26 2444.12C2133.98 2490.35 2125.25 2541.86 2096.54 2584.1 2092.32 2590.32 2102.52 2596.12 2106.74 2589.91 2135.51 2547.54 2144.12 2496.16 2164.45 2449.92 2167.44 2443.13 2157.3 2437.21 2154.26 2444.12zM2151.85 2340.24C2151.38 2362.21 2153.08 2384.12 2156.77 2405.8 2157.3 2408.91 2161.05 2410.72 2163.92 2410.02 2167.2 2409.14 2168.67 2405.98 2168.14 2402.87 2164.63 2382.19 2163.16 2361.27 2163.63 2340.29 2163.75 2332.74 2152.03 2332.74 2151.85 2340.24zM2188.42 2323.53C2235.12 2320.14 2281.88 2317.79 2328.69 2316.56 2336.25 2316.39 2336.31 2304.67 2328.75 2304.84 2281.93 2306.07 2235.18 2308.42 2188.48 2311.81 2180.98 2312.34 2180.86 2324.12 2188.42 2323.53z"></path><path fill="#203752" d="M2159.06 2380.54C2202.83 2379.08 2246.6 2376.27 2290.2 2372.05 2297.64 2371.34 2297.75 2359.63 2290.25 2360.33 2246.66 2364.49 2202.89 2367.36 2159.12 2368.82 2151.56 2369.06 2151.51 2380.78 2159.06 2380.54zM2354.76 2410.6C2313.57 2415.94 2272.09 2419.16 2230.6 2420.51 2223.04 2420.74 2222.98 2432.46 2230.54 2432.23 2273.08 2430.88 2315.5 2427.42 2357.75 2421.97 2365.19 2421.03 2362.14 2409.67 2354.76 2410.6zM2232.42 2494.28C2267.28 2493.17 2302.15 2491.23 2336.95 2488.54 2344.45 2487.95 2344.51 2476.23 2337.01 2476.82 2302.21 2479.52 2267.4 2481.45 2232.48 2482.56 2224.92 2482.8 2224.86 2494.52 2232.42 2494.28zM2220.47 2555.57C2262.08 2553.46 2303.62 2550.64 2345.16 2547.07 2352.6 2546.42 2352.72 2534.71 2345.22 2535.35 2303.74 2538.87 2262.13 2541.74 2220.53 2543.85 2213.03 2544.26 2212.97 2555.98 2220.47 2555.57zM2373.22 2574.02C2389.92 2572.44 2406.62 2570.91 2423.32 2569.33 2426.48 2569.04 2429.17 2566.87 2429.23 2563.53 2429.23 2560.6 2426.6 2557.32 2423.43 2557.61 2406.73 2559.2 2390.03 2560.72 2373.33 2562.3 2370.17 2562.59 2367.48 2564.76 2367.42 2568.1 2367.36 2571.03 2370.05 2574.31 2373.22 2574.02zM2378.55 2515.96C2391.97 2514.73 2405.39 2513.5 2418.8 2512.27 2421.97 2511.97 2424.66 2509.8 2424.72 2506.46 2424.72 2503.53 2422.08 2500.31 2418.92 2500.55 2405.5 2501.78 2392.08 2503.01 2378.67 2504.24 2375.5 2504.53 2372.81 2506.7 2372.75 2510.04 2372.75 2513.03 2375.39 2516.25 2378.55 2515.96zM2372.93 2459.53C2386.05 2457.6 2399.35 2456.78 2412.6 2456.95 2415.76 2457.01 2418.46 2454.26 2418.52 2451.15 2418.52 2447.93 2415.88 2445.29 2412.71 2445.23 2398.42 2445.06 2384.18 2446.11 2370.06 2448.16 2366.95 2448.63 2365.14 2452.5 2365.84 2455.31 2366.66 2458.71 2369.77 2460 2372.93 2459.53zM2312.17 2133.81C2363.03 2132.11 2413.95 2131.35 2464.87 2131.64 2472.43 2131.7 2472.49 2119.98 2464.93 2119.92 2414.01 2119.63 2363.09 2120.39 2312.23 2122.09 2304.67 2122.32 2304.61 2134.04 2312.17 2133.81zM2290.08 2190.24C2340.35 2190.12 2390.56 2188.3 2440.72 2184.67 2448.22 2184.14 2448.34 2172.43 2440.78 2172.95 2390.62 2176.59 2340.41 2178.46 2290.13 2178.52 2282.58 2178.58 2282.52 2190.3 2290.08 2190.24zM2475.47 2228.49C2431.58 2230.25 2387.69 2231.95 2343.81 2233.71 2336.25 2234 2336.19 2245.72 2343.75 2245.42 2387.63 2243.67 2431.52 2241.97 2475.41 2240.21 2482.91 2239.92 2482.97 2228.2 2475.47 2228.49zM2370.06 2305.08C2397.77 2304.73 2425.55 2304.44 2453.26 2304.09 2460.82 2303.97 2460.88 2292.25 2453.32 2292.37 2425.61 2292.72 2397.83 2293.01 2370.12 2293.36 2362.62 2293.48 2362.5 2305.2 2370.06 2305.08zM2475.46 2339.13C2450.21 2341.18 2424.9 2343.29 2399.64 2345.34 2392.14 2345.92 2392.09 2357.7 2399.59 2357.05 2424.84 2355 2450.15 2352.89 2475.41 2350.84 2482.85 2350.26 2482.96 2338.54 2475.46 2339.13zM2378.49 2405.34C2405.86 2405.1 2433.28 2404.87 2460.64 2404.58 2468.2 2404.52 2468.26 2392.8 2460.7 2392.86 2433.34 2393.09 2405.91 2393.33 2378.55 2393.62 2370.99 2393.68 2370.93 2405.4 2378.49 2405.34zM2493.75 2384.36C2510.33 2381.84 2527.09 2380.9 2543.84 2381.31 2551.4 2381.49 2551.46 2369.77 2543.9 2369.59 2526.15 2369.18 2508.39 2370.35 2490.82 2373.05 2487.71 2373.52 2485.89 2377.38 2486.6 2380.2 2487.48 2383.48 2490.58 2384.83 2493.75 2384.36zM2496.45 2320.32C2512.62 2319.2 2528.73 2318.15 2544.91 2317.04 2548.07 2316.8 2550.76 2314.52 2550.82 2311.23 2550.82 2308.25 2548.19 2305.14 2545.02 2305.32 2528.85 2306.43 2512.74 2307.48 2496.57 2308.6 2493.4 2308.83 2490.71 2311.12 2490.65 2314.4 2490.59 2317.45 2493.28 2320.55 2496.45 2320.32zM2496.5 2253.69C2530.6 2253.46 2564.76 2253.22 2598.87 2252.99 2606.42 2252.93 2606.48 2241.21 2598.92 2241.27 2564.82 2241.5 2530.66 2241.74 2496.56 2241.97 2489 2242.03 2488.94 2253.75 2496.5 2253.69zM2635.43 2175.88C2597.63 2176.94 2559.9 2177.99 2522.11 2179.04 2514.55 2179.28 2514.49 2191 2522.05 2190.76 2559.84 2189.71 2597.57 2188.65 2635.37 2187.6 2642.93 2187.36 2642.98 2175.65 2635.43 2175.88zM2491.58 2129.94C2531.43 2130.59 2571.27 2129.41 2611 2126.43 2618.5 2125.84 2618.62 2114.12 2611.06 2114.71 2571.33 2117.7 2531.49 2118.87 2491.64 2118.22 2484.14 2118.11 2484.08 2129.82 2491.58 2129.94zM2459.94 2064.78C2513.96 2064.2 2567.99 2063.61 2622.01 2063.03 2629.57 2062.97 2629.63 2051.25 2622.07 2051.31 2568.05 2051.89 2514.02 2052.48 2460 2053.07 2452.44 2053.12 2452.38 2064.84 2459.94 2064.78zM2474.53 1989.78C2529.79 1988.55 2585.04 1987.32 2640.24 1986.09 2647.8 1985.91 2647.85 1974.2 2640.29 1974.37 2585.04 1975.6 2529.79 1976.83 2474.59 1978.06 2467.09 1978.24 2467.03 1989.96 2474.53 1989.78zM2656.29 2228.67C2692.44 2228.67 2728.59 2228.61 2764.74 2228.61 2772.3 2228.61 2772.36 2216.89 2764.8 2216.89 2728.65 2216.89 2692.5 2216.95 2656.34 2216.95 2648.79 2216.95 2648.73 2228.67 2656.29 2228.67zM2787.95 2268.45C2757.83 2268.28 2727.77 2269.39 2697.77 2271.85 2690.27 2272.44 2690.21 2284.22 2697.71 2283.57 2727.71 2281.11 2757.77 2279.94 2787.89 2280.17 2795.45 2280.23 2795.45 2268.51 2787.95 2268.45zM2701.34 2350.2C2728.53 2349.5 2755.78 2348.79 2782.96 2348.09 2790.52 2347.91 2790.58 2336.2 2783.02 2336.37 2755.83 2337.07 2728.59 2337.78 2701.4 2338.48 2693.9 2338.71 2693.78 2350.43 2701.34 2350.2zM2790.35 2398.71C2769.61 2400.23 2748.92 2401.75 2728.18 2403.22 2725.02 2403.45 2722.32 2405.74 2722.26 2409.02 2722.26 2412.01 2724.9 2415.11 2728.06 2414.94 2748.81 2413.41 2769.49 2411.89 2790.23 2410.42 2793.4 2410.19 2796.09 2407.91 2796.15 2404.62 2796.21 2401.58 2793.51 2398.47 2790.35 2398.71zM2714.77 2480.86C2731.35 2479.28 2748.05 2478.69 2764.69 2479.1 2772.25 2479.28 2772.31 2467.56 2764.75 2467.38 2748.05 2466.97 2731.41 2467.56 2714.83 2469.14 2711.66 2469.43 2708.97 2471.6 2708.91 2474.94 2708.91 2477.87 2711.6 2481.15 2714.77 2480.86zM2619.67 2522.87C2642.23 2522.7 2664.79 2521.47 2687.23 2519.24 2690.39 2518.95 2693.09 2516.78 2693.15 2513.44 2693.15 2510.51 2690.51 2507.23 2687.35 2507.52 2664.9 2509.75 2642.35 2510.98 2619.79 2511.15 2612.17 2511.21 2612.11 2522.93 2619.67 2522.87zM2623.36 2476.7C2643.4 2476.06 2663.44 2475.41 2683.48 2474.71 2691.04 2474.47 2691.1 2462.76 2683.54 2462.99 2663.5 2463.63 2643.46 2464.28 2623.42 2464.98 2615.92 2465.22 2615.8 2476.94 2623.36 2476.7zM2553.05 2337.19C2589.73 2336.31 2626.47 2335.49 2663.15 2334.61 2670.71 2334.43 2670.76 2322.71 2663.21 2322.89 2626.53 2323.77 2589.79 2324.59 2553.11 2325.47 2545.55 2325.64 2545.49 2337.36 2553.05 2337.19zM2690.98 2370.41C2656.41 2371.76 2621.84 2373.98 2587.39 2377.09 2579.94 2377.73 2579.83 2389.51 2587.33 2388.81 2621.78 2385.7 2656.35 2383.48 2690.92 2382.13 2698.42 2381.83 2698.54 2370.12 2690.98 2370.41zM2562.31 2432.23C2596.23 2432.29 2630.16 2431.76 2664.08 2430.59 2671.64 2430.36 2671.7 2418.64 2664.14 2418.87 2630.22 2420.04 2596.29 2420.57 2562.37 2420.51 2554.81 2420.46 2554.75 2432.17 2562.31 2432.23z"></path><path fill="#31DECD" d="M1584.15 906.383C1554.44 984.488 1466.43 1049.12 1385.4 1069.51 1341.92 1080.41 1296.39 1080 1252.27 1087.73 1217.64 1093.77 1184.07 1104.78 1151.49 1117.85 1113.52 1133.02 1072.92 1155.23 1061.14 1194.43 996.685 1128.92 978.228 1038.34 919.224 979.918 951.157 928.121 999.321 887.809 1054.93 866.012 1121.66 839.82 1195.55 840.523 1266.04 827.516 1336.59 814.508 1411 781.402 1437.08 720.406 1489.34 775.191 1521.68 828.453 1584.15 906.383zM663.458 396.562C438.517 483.046 349.396 836.659 570.294 919.921 753.458 989.003 926.075 797.343 966.036 671.015 1011.21 527.929 931.759 293.378 663.458 396.562z"></path><path fill="#31DECD" d="M678.286 477.541C524.477 536.721 463.539 778.537 614.536 835.49C739.809 882.717 857.817 751.701 885.18 665.275C916.118 567.424 861.801 406.994 678.286 477.541Z"></path><path fill="#FFC5A6" d="M1812.96 1919.65C1835.46 1889.06 1860.36 1856.72 1896.51 1845 1923.4 1836.27 1952.53 1840.49 1980.83 1839.84 2016.16 1839.02 2051.26 1830.47 2082.96 1814.94 2098.01 1807.56 2117.7 1799.18 2129.71 1810.84 2140.9 1821.74 2134.81 1840.72 2126.37 1853.9 2107.33 1883.67 2079.56 1907.81 2047.39 1922.58 2016.45 1936.76 1981.82 1942.38 1952.17 1959.14 1930.03 1971.62 1910.51 1990.37 1885.55 1995.23 1863.87 1999.45 1840.2 1991.66 1825.26 1975.37 1810.32 1959.08 1802.76 1933.59 1812.96 1919.65zM993.932 1746.62C980.279 1766.77 950.748 1765.48 926.725 1761.67 878.326 1754.12 830.045 1745.68 781.939 1736.3 770.572 1734.08 758.15 1731.15 751.295 1721.83 745.787 1714.33 745.26 1704.37 744.967 1695.11 743.209 1644.84 741.51 1594.56 739.811 1544.29 739.166 1527.18 738.58 1510.07 738.053 1492.96 804.85 1463.55 882.603 1449.78 961.002 1444.98 965.221 1444.74 969.85 1444.62 973.189 1447.26 976.822 1450.13 977.467 1455.35 977.936 1459.98 982.447 1509.84 986.959 1559.64 991.471 1609.51 994.283 1640.8 997.154 1672.14 999.967 1703.43 1001.26 1718.2 1002.25 1734.31 993.932 1746.62z"></path><path fill="#FF9F6B" d="M991.401 1609.45C990.288 1609.68 989.233 1609.8 988.12 1609.98 919.155 1619.82 809.878 1616.89 739.214 1529.18 738.569 1512.07 738.569 1510.07 737.983 1492.91 804.78 1463.49 882.534 1449.72 960.933 1444.92 965.151 1444.68 969.78 1444.57 973.12 1447.2 976.753 1450.07 977.397 1455.29 977.866 1459.92 982.378 1509.78 986.89 1559.59 991.401 1609.45zM680.099 1302.54C663.635 1307.23 652.326 1322.11 644.064 1337.11 640.373 1343.85 636.974 1350.88 635.627 1358.44 631.115 1383.34 649.865 1407.78 673.01 1418.03 696.095 1428.34 722.404 1427.76 747.658 1426.53 832.443 1422.48 916.935 1413.34 1000.61 1399.28 1011.62 1397.4 1022.81 1395.41 1032.83 1390.49 1062.01 1376.08 1074.14 1335.7 1059.03 1306.88 1048.24 1286.37 1026.8 1273.07 1004.42 1267.03 982.033 1261 958.478 1261.35 935.275 1262.05 849.201 1264.57 764.299 1278.63 680.099 1302.54z"></path><path fill="#FFC5A6" d="M683.142 1279.4C680.564 1323.63 681.97 1368.11 687.185 1412.11C692.048 1452.6 701.775 1495.66 731.951 1523.15C740.915 1531.29 751.345 1537.68 762.185 1543.13C827.693 1575.88 910.427 1571.13 971.775 1531.06C978.337 1526.78 984.665 1522.09 990.29 1516.64C1007.4 1499.88 1016.66 1476.39 1020.35 1452.72C1024.04 1429.04 1022.58 1404.9 1021.17 1380.94C1018.88 1343.15 1016.6 1305.29 1012.15 1267.68C1010.97 1257.89 1009.57 1247.87 1004.82 1239.2C997.146 1225.31 982.029 1217.4 967.439 1211.19C927.537 1194.32 883.767 1184.53 840.701 1189.34C819.49 1191.74 798.806 1197.6 778.298 1203.46C764.119 1207.5 749.822 1211.6 737.224 1219.16C723.103 1227.66 711.794 1240.14 700.779 1252.38C693.513 1260.41 683.728 1268.79 683.142 1279.4Z"></path><path fill="#203752" d="M1019.48 1354.51C1016.02 1350.47 1014.14 1345.31 1012.44 1340.22C1000.96 1306 993.753 1270.43 990.882 1234.45C967.268 1252.09 938.206 1264.04 908.264 1269.96C878.323 1275.88 847.386 1275.88 817.034 1272.6C806.839 1271.49 796.585 1269.96 786.858 1266.68C769.632 1260.88 754.69 1249.75 741.038 1237.79C737.171 1288.3 715.901 1338.17 682.444 1377.83C654.964 1361.9 640.374 1330.31 633.87 1299.26C626.663 1264.57 627.659 1227.95 639.143 1194.43C650.628 1160.92 672.893 1130.86 702.893 1111.99C715.081 1104.38 729.085 1098.46 743.675 1101.8C760.198 1072.33 794.593 1058.32 827.112 1049.06C864.846 1038.28 986.956 1028.61 1049.01 1113.17C1078.77 1153.77 1072.85 1213.13 1066.29 1246.06C1058.38 1285.02 1044.73 1323.99 1019.48 1354.51Z"></path><path fill="#203752" d="M747.01 1300.43C772.322 1290 800.916 1289.24 826.932 1297.56 834.139 1299.85 837.127 1288.54 829.979 1286.25 800.799 1276.94 769.393 1278.64 741.209 1290.3 738.279 1291.53 737.635 1295.81 739.041 1298.32 740.74 1301.31 744.08 1301.61 747.01 1300.43zM883.594 1298.5C910.782 1289.24 940.137 1289.54 967.149 1299.26 974.239 1301.84 977.227 1290.47 970.196 1287.96 941.485 1277.64 909.551 1277.35 880.665 1287.19 873.516 1289.6 876.446 1300.96 883.594 1298.5zM783.16 1326.45C782.867 1326.5 782.633 1326.56 782.34 1326.62 781.637 1326.86 780.816 1327.15 780.172 1327.56 778.766 1328.44 777.887 1329.37 776.891 1330.72 776.715 1330.96 776.598 1331.19 776.48 1331.43 776.188 1332.07 775.836 1332.83 775.66 1333.53 775.367 1335.06 775.309 1336.46 775.66 1337.99 776.246 1340.51 778.004 1342.73 780.23 1344.08 780.816 1344.43 781.52 1344.73 782.223 1344.96 782.984 1345.25 783.805 1345.31 784.566 1345.37 784.918 1345.43 785.27 1345.43 785.563 1345.37 786.383 1345.31 787.203 1345.25 788.023 1345.02 788.785 1344.78 789.547 1344.43 790.309 1344.14 790.602 1344.02 790.895 1343.85 791.129 1343.67 792.008 1343.09 792.945 1342.38 793.648 1341.56 794.117 1340.98 794.586 1340.39 794.996 1339.75 795.406 1339.1 795.641 1338.34 795.934 1337.64 796.051 1337.34 796.109 1337.11 796.168 1336.82 796.344 1336.05 796.461 1335.29 796.461 1334.53 796.461 1332.89 796.051 1331.6 795.406 1330.14 795.289 1329.9 795.172 1329.61 794.996 1329.37 794.586 1328.73 794.117 1328.09 793.531 1327.56 792.418 1326.45 791.187 1325.8 789.723 1325.27 788.785 1324.92 787.73 1324.8 786.793 1324.86 785.27 1324.98 784.625 1325.16 783.219 1325.8 782.75 1326.03 782.398 1326.33 781.93 1326.68 781.519 1327.03 781.109 1327.27 780.758 1327.73 780.289 1328.32 779.82 1328.91 779.469 1329.55 779.176 1330.2 778.824 1330.9 778.648 1331.6 778.473 1332.3 778.355 1333.07 778.355 1333.77 778.355 1334.36 778.473 1334.94 778.59 1335.53 778.59 1335.64 778.648 1335.82 778.707 1335.94 778.883 1336.52 779.176 1337.11 779.41 1337.7 779.469 1337.81 779.586 1337.93 779.644 1338.05 779.996 1338.75 780.523 1339.34 781.227 1339.75 781.812 1340.27 782.457 1340.62 783.219 1340.8 784.625 1341.15 786.441 1340.98 787.672 1340.21 788.961 1339.39 790.074 1338.16 790.426 1336.64 790.484 1336.17 790.543 1335.64 790.601 1335.18 790.601 1334.12 790.367 1333.12 789.84 1332.19 789.723 1332.01 789.605 1331.84 789.547 1331.66 789.723 1332.13 789.957 1332.66 790.133 1333.12 790.074 1332.95 790.016 1332.77 790.016 1332.6 790.074 1333.12 790.133 1333.59 790.191 1334.12 790.191 1333.89 790.191 1333.65 790.191 1333.36 790.133 1333.83 790.074 1334.36 790.016 1334.82 790.074 1334.59 790.133 1334.36 790.191 1334.12 790.016 1334.59 789.84 1335.06 789.605 1335.53 789.723 1335.23 789.84 1335 790.074 1334.77 789.781 1335.18 789.488 1335.59 789.137 1336 789.312 1335.82 789.488 1335.59 789.664 1335.47 789.254 1335.76 788.844 1336.11 788.434 1336.41 788.609 1336.23 788.844 1336.11 789.078 1336 788.609 1336.17 788.082 1336.41 787.613 1336.58 787.789 1336.52 788.023 1336.46 788.258 1336.41 787.73 1336.46 787.262 1336.52 786.734 1336.58 786.969 1336.58 787.203 1336.58 787.496 1336.58 787.027 1336.52 786.5 1336.46 786.031 1336.41 786.266 1336.46 786.5 1336.52 786.734 1336.58 786.266 1336.41 785.797 1336.23 785.328 1336 785.621 1336.11 785.855 1336.23 786.09 1336.41 785.68 1336.11 785.269 1335.82 784.859 1335.47 785.152 1335.7 785.445 1336 785.68 1336.29 785.387 1335.88 785.035 1335.47 784.742 1335.06 784.976 1335.35 785.094 1335.64 785.27 1335.94 785.094 1335.47 784.859 1334.94 784.684 1334.47 784.801 1334.82 784.918 1335.12 784.918 1335.47 784.859 1334.94 784.801 1334.47 784.742 1333.95 784.801 1334.24 784.742 1334.53 784.742 1334.88 784.801 1334.41 784.859 1333.89 784.918 1333.42 784.859 1333.83 784.742 1334.18 784.625 1334.59 784.801 1334.12 784.977 1333.65 785.211 1333.18 785.035 1333.59 784.801 1334 784.508 1334.36 784.801 1333.95 785.094 1333.53 785.445 1333.12 785.152 1333.53 784.801 1333.89 784.391 1334.18 784.801 1333.89 785.211 1333.53 785.621 1333.24 785.152 1333.59 784.684 1333.89 784.156 1334.06 784.625 1333.89 785.152 1333.65 785.621 1333.48 785.152 1333.65 784.742 1333.77 784.273 1333.83 784.801 1333.77 785.27 1333.71 785.797 1333.65 785.445 1333.71 785.094 1333.71 784.684 1333.65 785.152 1333.71 785.68 1333.77 786.148 1333.83 785.797 1333.77 785.445 1333.71 785.152 1333.59 785.621 1333.77 786.09 1333.95 786.559 1334.18 786.266 1334.06 786.031 1333.89 785.797 1333.71 786.207 1334 786.617 1334.3 787.027 1334.65 786.734 1334.41 786.5 1334.18 786.266 1333.89 786.559 1334.3 786.91 1334.71 787.203 1335.12 786.969 1334.82 786.793 1334.53 786.676 1334.24 786.852 1334.71 787.086 1335.23 787.262 1335.7 787.145 1335.35 787.027 1335.06 786.969 1334.71 787.027 1335.23 787.086 1335.7 787.144 1336.23 787.086 1335.94 787.086 1335.64 787.144 1335.29 787.086 1335.76 787.027 1336.29 786.969 1336.76 787.027 1336.46 787.086 1336.17 787.203 1335.88 787.027 1336.35 786.852 1336.82 786.617 1337.28 786.734 1336.99 786.91 1336.76 787.086 1336.52 786.793 1336.93 786.5 1337.34 786.148 1337.75 786.383 1337.46 786.676 1337.17 786.969 1336.93 786.559 1337.23 786.148 1337.58 785.738 1337.87 786.031 1337.64 786.324 1337.52 786.617 1337.34 786.148 1337.52 785.621 1337.75 785.152 1337.93 785.445 1337.81 785.738 1337.75 786.031 1337.7 786.852 1337.52 787.496 1337.17 788.082 1336.64 788.727 1336.23 789.254 1335.64 789.605 1334.94 790.309 1333.71 790.602 1331.95 790.191 1330.55 789.723 1329.08 788.844 1327.68 787.437 1326.91 786.969 1326.74 786.5 1326.56 786.031 1326.33 785.152 1326.15 784.156 1326.15 783.16 1326.45zM925.374 1322.16C924.788 1322.28 924.203 1322.46 923.617 1322.63 922.914 1322.93 922.152 1323.22 921.449 1323.57 920.746 1323.92 920.16 1324.45 919.574 1324.98 918.753 1325.62 918.109 1326.5 917.64 1327.44 916.996 1328.79 916.527 1330.25 916.644 1331.77 916.703 1332.42 916.761 1333.3 916.996 1334 917.23 1334.7 917.523 1335.47 917.933 1336.11 918.871 1337.57 919.749 1338.4 921.156 1339.39 921.39 1339.57 921.683 1339.68 921.917 1339.8 922.621 1340.09 923.324 1340.45 924.027 1340.56 925.609 1340.86 927.015 1340.91 928.597 1340.45 929.359 1340.21 930.121 1339.92 930.824 1339.57 931.117 1339.45 931.351 1339.27 931.585 1339.1 932.23 1338.63 932.874 1338.16 933.402 1337.63 933.988 1337.05 934.456 1336.4 934.867 1335.76 935.511 1334.88 935.921 1333.82 936.273 1332.83 936.39 1332.54 936.449 1332.24 936.507 1332.01 936.624 1331.25 936.8 1330.43 936.8 1329.66 936.742 1328.08 936.39 1326.56 935.628 1325.15 935.277 1324.51 934.808 1323.86 934.222 1323.34 933.812 1322.93 933.226 1322.52 932.757 1322.22 932.64 1322.16 932.523 1322.05 932.347 1321.99 931.058 1321.4 930.355 1321.23 928.949 1321.11 928.187 1321.05 927.425 1321.17 926.722 1321.34 926.253 1321.46 925.785 1321.64 925.316 1321.87 924.788 1322.11 924.32 1322.28 923.851 1322.57 923.265 1322.98 922.503 1323.51 921.976 1324.1 921.566 1324.57 921.214 1325.09 920.863 1325.56 920.746 1325.68 920.628 1325.86 920.57 1326.03 919.749 1327.44 919.456 1328.9 919.339 1330.49 919.281 1331.25 919.456 1332.01 919.574 1332.77 919.632 1333.36 919.867 1333.77 920.101 1334.35 920.57 1335.47 920.863 1335.99 921.742 1336.93 921.859 1337.05 921.917 1337.16 922.035 1337.22 922.503 1337.63 923.031 1338.04 923.558 1338.34 924.847 1339.04 926.488 1339.27 927.953 1338.92 928.773 1338.75 929.417 1338.4 930.003 1337.87 930.648 1337.46 931.175 1336.87 931.527 1336.17 932.23 1334.82 932.581 1333.24 932.113 1331.77 931.644 1330.25 930.765 1328.96 929.359 1328.14 929.242 1328.08 929.124 1328.02 929.007 1327.91 929.417 1328.2 929.828 1328.49 930.238 1328.84 930.121 1328.73 930.003 1328.61 929.886 1328.49 930.179 1328.9 930.531 1329.31 930.824 1329.72 930.706 1329.55 930.589 1329.37 930.472 1329.14 930.648 1329.61 930.882 1330.13 931.058 1330.6 930.941 1330.31 930.882 1330.02 930.824 1329.72 930.882 1330.25 930.941 1330.72 930.999 1331.25 930.941 1330.95 930.941 1330.6 930.999 1330.31 930.941 1330.78 930.882 1331.31 930.824 1331.77 930.882 1331.42 930.941 1331.07 931.117 1330.78 930.941 1331.25 930.765 1331.72 930.531 1332.18 930.648 1331.89 930.824 1331.6 930.999 1331.36 930.706 1331.77 930.413 1332.18 930.062 1332.59 930.296 1332.3 930.531 1332.07 930.824 1331.83 930.414 1332.13 930.003 1332.48 929.593 1332.77 929.828 1332.59 930.12 1332.42 930.413 1332.3 929.945 1332.48 929.417 1332.71 928.949 1332.89 929.183 1332.77 929.476 1332.71 929.71 1332.65 929.183 1332.71 928.714 1332.77 928.187 1332.83 928.421 1332.83 928.656 1332.83 928.89 1332.83 928.421 1332.77 927.894 1332.71 927.425 1332.65 927.601 1332.65 927.718 1332.71 927.894 1332.77 927.425 1332.59 926.956 1332.42 926.488 1332.18 926.663 1332.24 926.839 1332.36 927.015 1332.48 926.605 1332.18 926.195 1331.89 925.785 1331.54 925.902 1331.66 926.078 1331.77 926.195 1331.95 925.902 1331.54 925.55 1331.13 925.257 1330.72 925.374 1330.9 925.492 1331.07 925.609 1331.31 925.433 1330.84 925.199 1330.31 925.023 1329.84 925.14 1330.13 925.199 1330.43 925.257 1330.72 925.199 1330.19 925.14 1329.72 925.082 1329.2 925.14 1329.55 925.082 1329.9 925.082 1330.25 925.14 1329.78 925.199 1329.25 925.257 1328.79 925.199 1329.25 925.082 1329.72 924.906 1330.13 925.082 1329.66 925.257 1329.2 925.492 1328.73 925.316 1329.2 925.023 1329.66 924.73 1330.07 925.023 1329.66 925.316 1329.25 925.667 1328.84 925.374 1329.25 925.023 1329.61 924.613 1329.9 925.023 1329.61 925.433 1329.25 925.843 1328.96 925.492 1329.2 925.14 1329.43 924.73 1329.61 925.199 1329.43 925.726 1329.2 926.195 1329.02 925.843 1329.14 925.55 1329.25 925.199 1329.31 925.726 1329.25 926.195 1329.2 926.722 1329.14 926.429 1329.2 926.136 1329.2 925.843 1329.14 926.312 1329.2 926.839 1329.25 927.308 1329.31 927.015 1329.25 926.722 1329.2 926.429 1329.08 926.898 1329.25 927.367 1329.43 927.835 1329.66 927.542 1329.55 927.249 1329.37 926.956 1329.2 927.367 1329.49 927.777 1329.78 928.187 1330.13 927.894 1329.9 927.601 1329.66 927.425 1329.37 927.718 1329.78 928.07 1330.19 928.363 1330.6 928.187 1330.37 928.011 1330.07 927.894 1329.78 928.07 1330.25 928.304 1330.78 928.48 1331.25 928.363 1330.95 928.304 1330.72 928.246 1330.43 928.304 1330.95 928.363 1331.42 928.421 1331.95 928.421 1331.72 928.421 1331.54 928.421 1331.31 928.363 1331.77 928.304 1332.3 928.246 1332.77 928.304 1332.54 928.363 1332.3 928.421 1332.01 928.246 1332.48 928.07 1332.95 927.835 1333.41 927.953 1333.18 928.07 1332.95 928.246 1332.77 927.953 1333.18 927.66 1333.59 927.308 1334 927.484 1333.77 927.718 1333.53 928.011 1333.3 927.601 1333.59 927.191 1333.94 926.781 1334.24 927.191 1333.94 927.601 1333.71 928.07 1333.53 927.601 1333.71 927.074 1333.94 926.605 1334.12 927.191 1333.88 927.835 1333.71 928.48 1333.59 929.3 1333.41 929.945 1333.06 930.531 1332.54 931.175 1332.13 931.703 1331.54 932.054 1330.84 932.464 1330.19 932.699 1329.49 932.699 1328.73 932.874 1327.97 932.816 1327.2 932.581 1326.5 932.113 1325.04 931.234 1323.63 929.828 1322.87 929.359 1322.69 928.89 1322.52 928.421 1322.28 927.367 1321.93 926.37 1321.93 925.374 1322.16zM814.516 1467.01C851.899 1481.43 894.613 1465.73 914.301 1431.04 917.992 1424.48 907.856 1418.67 904.106 1425.24 886.82 1455.71 850.141 1468.24 817.563 1455.71 810.531 1452.95 807.543 1464.32 814.516 1467.01z"></path><path fill="#31DECD" d="M1846.87 1840.6C1846.87 1840.6 1626.79 2032.5 1525.54 2002.56C1446.15 1979.12 1431.97 1748.26 1206.91 1662.77C996.206 1582.67 846.967 1663.06 846.967 1663.06L713.901 1640.68C713.901 1640.68 498.745 1647.01 398.842 1725.23C298.94 1803.45 188.432 2084.7 197.28 2257.44C206.128 2430.17 296.069 2488.06 511.87 2423.32C511.87 2423.32 513.979 2503.94 519.311 2534C519.311 2534 864.018 2576.48 1242.71 2519.76C1242.71 2519.76 1251.79 2219.7 1236.67 2040.17C1236.67 2040.17 1308.45 2235.76 1427.69 2277.07C1613.32 2341.34 1846.69 2136.44 1979 1993.53L1846.87 1840.6ZM500.737 2212.09C485.327 2215.78 469.565 2217.83 453.686 2219C477.534 2134.22 500.327 2051.31 523.061 1968.34C514.038 2049.02 507.417 2130.58 500.737 2212.09Z"></path><path fill="#1B81A6" d="M765.707 1727.64L823.246 1788.4L759.613 2425.25L852.016 2502.25L956.078 2418.99L891.918 1795.08L937.152 1726.88L849.73 1663.54L765.707 1727.64Z"></path><path fill="#31DECD" d="M854.474 1648.18C892.56 1619.36 934.806 1596.04 979.513 1579.22C998.087 1594.81 1015.61 1614.08 1030.72 1635.12C1015.08 1691.66 989.239 1743.93 954.903 1789.81C925.841 1749.14 891.622 1714.34 853.888 1683.99C819.259 1717.03 785.919 1753.13 750.528 1787.17C721.817 1743.46 700.079 1695.76 685.021 1646.08C696.388 1613.79 713.849 1589 733.126 1574.18C780.118 1591.47 817.032 1627.97 854.474 1648.18Z"></path><path fill="#FFC5A6" d="M876.859 2115.23C858.578 2107.21 836.84 2114.65 821.137 2126.95C805.434 2139.26 793.774 2155.84 779.535 2169.84C766.293 2182.85 750.824 2193.51 734.008 2201.31C723.285 2206.29 711.742 2210.21 703.129 2218.3C694.516 2226.39 689.828 2240.33 696.391 2250.17C700.668 2256.62 708.461 2259.67 715.844 2261.72C758.149 2273.55 806.43 2265 840.004 2236.64C873.52 2208.28 890.043 2160 876.859 2115.23Z"></path><path fill="#203752" d="M1158.22 2477.82C1192.96 2327.11 1223.96 2149.87 1264.74 1973.03C1135.66 1980.88 1008.63 1986.57 881.479 1987.97C861.498 2074.75 811.518 2324.83 773.666 2489.07C902.982 2493.93 1032.65 2489.42 1158.22 2477.82Z"></path><path fill="#FFC5A6" d="M807.712 2178.11C844.157 2180.1 880.896 2177.52 916.696 2170.43C928.181 2168.15 940.31 2165.45 951.325 2169.38C963.571 2173.72 972.009 2185.96 974.118 2198.79C976.286 2211.63 972.946 2224.87 967.263 2236.59C952.849 2266.35 924.079 2287.15 893.142 2298.93C862.263 2310.71 828.982 2314.52 796.11 2318.21C780.759 2319.91 765.407 2321.66 749.997 2323.36C732.185 2325.36 713.669 2327.29 696.677 2321.49C679.685 2315.69 664.802 2299.69 666.325 2281.82C667.497 2268.4 677.4 2257.15 688.943 2250.3C700.486 2243.38 713.669 2239.93 726.325 2235.36C759.255 2223.52 789.079 2203.66 807.712 2178.11Z"></path><path fill="#31DECD" d="M730.139 2346.62C729.436 2293.3 728.615 2239.1 712.561 2185.49C664.572 2195.8 615.412 2200.9 566.311 2200.61C572.404 2265.06 580.607 2329.28 590.92 2393.15C637.268 2376.97 683.557 2360.86 730.139 2346.62Z"></path><path fill="#203752" d="M688.95 1664.88C702.017 1706.71 720.532 1746.62 744.204 1783.53C745.786 1785.93 749.595 1787.63 752.232 1785.7C790.259 1757.28 824.595 1724.41 854.419 1687.44C859.107 1681.64 850.845 1673.32 846.099 1679.23C816.978 1715.33 783.521 1747.79 746.372 1775.56C749.067 1776.26 751.704 1776.97 754.399 1777.73C731.314 1741.69 713.091 1702.85 700.317 1662.01C698.032 1654.74 686.665 1657.67 688.95 1664.88Z"></path><path fill="#203752" d="M849.841 1688.14C878.083 1718.14 908.669 1746.09 940.72 1771.99C943.415 1774.16 948.161 1774.45 949.919 1770.7C971.247 1725.53 995.446 1681.76 1022.28 1639.69C1026.33 1633.3 1016.13 1627.5 1012.09 1633.89C985.192 1676.02 961.052 1719.79 939.724 1764.9C942.771 1764.49 945.876 1764.08 948.923 1763.61C916.814 1737.72 886.286 1709.77 858.044 1679.77C852.888 1674.32 844.626 1682.64 849.841 1688.14Z"></path><path fill="#203752" d="M788.499 1759.21C795.471 1765.95 802.385 1772.69 809.358 1779.37C815.217 1785 820.784 1789.92 829.104 1791.09C837.893 1792.32 847.034 1790.74 855.882 1790.97C866.37 1791.27 876.741 1792.67 886.936 1795.02C888.811 1795.43 891.331 1795.07 892.62 1793.49C903.049 1780.37 913.479 1767.24 923.85 1754.12C928.479 1748.26 920.217 1740 915.53 1745.91C905.1 1759.04 894.671 1772.16 884.299 1785.29C886.174 1784.76 888.108 1784.23 889.983 1783.77C872.405 1779.72 855.237 1779.2 837.249 1779.78C833.089 1779.9 828.928 1779.84 825.178 1777.73C821.956 1775.91 819.319 1772.81 816.682 1770.23C810.003 1763.79 803.381 1757.34 796.702 1750.89C791.311 1745.62 783.049 1753.94 788.499 1759.21Z"></path><path fill="#203752" d="M884.235 1796.02C891.032 1865.51 899.235 1934.89 908.903 2004.08 909.958 2011.53 921.267 2008.54 920.271 2001.15 910.778 1932.95 902.692 1864.63 896.013 1796.14 895.251 1788.64 883.532 1788.52 884.235 1796.02zM818.26 1794.32C804.491 1902.07 787.733 2010 782.225 2118.58 781.815 2126.14 793.593 2126.14 793.944 2118.64 799.452 2010.06 816.21 1902.13 829.979 1794.38 830.975 1786.88 819.257 1786.94 818.26 1794.32zM441.215 2228.38C532.68 2214.32 624.731 2204.18 717.074 2197.97 724.574 2197.44 724.691 2185.72 717.133 2186.25 623.793 2192.52 530.746 2202.83 438.227 2217.01 430.785 2218.18 433.832 2229.49 441.215 2228.38z"></path><path fill="#203752" d="M712.621 2195.57C718.774 2243.97 722.465 2292.66 723.754 2341.41C723.93 2348.97 735.649 2349.03 735.473 2341.47C734.125 2291.66 730.258 2242.04 723.988 2192.64C723.051 2185.14 711.684 2188.19 712.621 2195.57Z"></path><path fill="#203752" d="M725.328 2339.24C653.843 2365.08 581.773 2389.16 509.117 2411.55 501.91 2413.77 504.84 2425.14 512.047 2422.91 584.703 2400.53 656.773 2376.39 728.258 2350.61 735.289 2348.03 732.418 2336.66 725.328 2339.24zM508.24 2205.18C512.342 2122.85 520.135 2040.7 531.736 1959.08 532.791 1951.7 521.482 1948.59 520.428 1956.04 508.709 2038.65 500.682 2121.74 496.521 2205.06 496.17 2212.68 507.889 2212.68 508.24 2205.18z"></path><path fill="#203752" d="M459.376 2210.74C483.107 2139.25 505.548 2067.3 526.701 1995 528.81 1987.73 517.501 1984.74 515.392 1991.95 494.24 2064.25 471.798 2136.15 448.068 2207.69 445.724 2214.9 457.033 2217.89 459.376 2210.74zM1220.8 1913.97C1220.86 1948.18 1220.97 1982.4 1221.03 2016.68 1221.03 2024.24 1232.75 2024.3 1232.75 2016.74 1232.69 1982.52 1232.58 1948.3 1232.52 1914.02 1232.52 1906.47 1220.74 1906.41 1220.8 1913.97zM2760.52 813.222C2756.65 1125.58 2752.73 1437.95 2748.86 1750.31 2374.1 1737.42 1998.98 1733.14 1624.04 1737.48 1616.24 1421.78 1602.94 1113.46 1596.91 806.952 1982.57 788.202 2369.23 791.718 2760.52 813.222z"></path><path fill="#1B81A6" d="M1584.14 1709.83C1984.45 1714.52 2384.76 1719.2 2785.13 1723.89 2782.55 1746.1 2780.04 1768.25 2777.46 1790.45 2482.5 1769.24 2186.19 1793.5 1890.58 1784.94 1791.85 1782.07 1683.04 1775.57 1584.31 1778.03 1584.25 1756.7 1585.6 1742.41 1584.14 1709.83zM1553.5 764.82C1970.04 769.508 2386.65 774.195 2803.19 778.883 2800.55 801.09 2797.86 823.238 2795.22 845.445 2488.31 824.234 2179.93 848.492 1872.37 839.938 1769.59 837.066 1656.39 830.562 1553.62 833.023 1553.62 811.695 1555.02 797.398 1553.5 764.82z"></path><path fill="#203752" d="M650.746 473.784C553.539 511.636 514.047 622.612 525.062 720.112 527.757 744.077 534.379 767.925 548.382 787.905 560.218 804.839 576.039 818.667 594.027 828.745 632.054 850.073 677.582 854.585 719.359 842.983 770.98 828.628 814.691 793.179 846.683 750.991 851.195 745.073 842.875 736.753 838.363 742.788 787.562 809.761 701.605 860.562 616.996 826.812 577.152 810.933 548.5 778.765 539.535 736.577 529.398 688.823 534.965 634.565 553.129 589.39 571.586 543.452 607.093 503.316 653.793 485.151 660.707 482.456 657.777 471.089 650.746 473.784zM728.907 462.3C773.439 452.632 819.962 470.562 851.193 502.73 885.294 537.827 896.837 588.57 888.341 636.089 883.361 663.745 872.228 689.761 855.939 712.613 851.544 718.765 861.798 724.507 866.134 718.413 896.954 675.23 910.314 618.98 898.536 566.89 887.462 517.964 852.482 477.359 806.075 458.492 780.646 448.179 752.872 445.191 725.978 451.05 718.595 452.574 721.583 463.882 728.907 462.3z"></path><path fill="#203752" d="M786.094 598.774C780.059 580.434 763.77 567.016 744.551 564.496C724.57 561.86 705.528 573.11 696.445 590.746C692.051 599.301 689.942 609.028 691.113 618.637C692.52 630.414 698.496 640.785 703.77 651.157C710.098 663.637 714.258 676.938 715.43 690.883C715.957 697.094 716.485 704.184 714.961 710.336C713.262 717.075 708.223 720.707 702.363 723.754C690 730.141 673.301 735.473 661.055 726.039C651.152 718.364 647.285 705.063 644.824 693.344C643.242 685.961 631.934 688.95 633.457 696.274C637.5 715.317 646.641 736.996 667.676 741.86C679.629 744.614 691.875 741.215 702.832 736.411C712.324 732.25 721.582 726.684 725.332 716.489C729.258 705.707 727.793 692.524 726.094 681.45C724.102 668.735 719.824 656.664 713.965 645.239C708.457 634.457 701.719 623.442 702.598 610.903C703.36 600.063 709.219 589.633 717.715 582.953C737.344 567.602 767.227 578.735 774.785 601.645C777.07 608.852 788.438 605.922 786.094 598.774Z"></path><path fill="#203752" d="M648.868 754.389C686.954 680.326 727.5 607.553 770.391 536.186 774.258 529.741 764.122 523.881 760.196 530.385 717.247 601.752 676.758 674.526 638.672 748.588 635.274 755.268 645.411 761.127 648.868 754.389zM1240.96 899.125C1225.84 899.887 1207.79 902.641 1202.11 919.105 1196.31 935.863 1212.89 947.406 1226.72 951.625 1242.6 956.488 1259.77 954.965 1275.53 960.238 1282.09 962.406 1289.06 966.625 1289.59 974.242 1290.12 981.801 1285.31 988.949 1279.86 993.695 1268.09 1003.89 1250.04 1005.65 1236.39 998.441 1229.71 994.926 1223.91 1005.12 1230.59 1008.64 1255.72 1021.88 1296.45 1010.98 1301.02 979.398 1303.53 962.23 1289.77 951.801 1274.71 947.816 1258.24 943.48 1239.96 945.473 1224.26 938.324 1217.05 935.043 1209.02 928.07 1214.82 919.75 1220.51 911.605 1231.93 911.312 1240.9 910.844 1248.4 910.492 1248.52 898.773 1240.96 899.125z"></path><path fill="#203752" d="M1208.79 906.329C1231.41 947.168 1256.84 986.309 1284.9 1023.52C1289.41 1029.43 1299.61 1023.69 1295.04 1017.66C1266.91 980.45 1241.48 941.25 1218.93 900.469C1215.29 893.848 1205.16 899.707 1208.79 906.329Z"></path><path fill="#31DECD" d="M1714.1 1651.88C1836.33 1654.4 1958.61 1656.15 2080.84 1657.27 2203.12 1658.32 2325.35 1658.67 2447.64 1658.32 2516.78 1658.09 2585.98 1657.68 2655.12 1656.97 2662.68 1656.92 2662.73 1645.2 2655.18 1645.26 2532.89 1646.43 2410.66 1646.9 2288.38 1646.66 2166.09 1646.43 2043.87 1645.43 1921.58 1643.73 1852.44 1642.79 1783.24 1641.56 1714.1 1640.16 1706.6 1639.98 1706.54 1651.7 1714.1 1651.88zM1780.96 1512.48C1814.01 1465.84 1847.11 1419.2 1880.16 1372.5 1877.52 1373.2 1874.83 1373.97 1872.19 1374.67 1892.11 1384.86 1911.45 1396.06 1930.26 1408.3 1933.07 1410.12 1936.58 1408.59 1938.23 1406.13 1954.34 1382.34 1970.45 1358.56 1986.57 1334.77 1983.93 1335.47 1981.23 1336.23 1978.6 1336.93 1988.85 1344.32 1999.1 1351.7 2009.36 1359.02 2012.11 1361.02 2015.69 1359.2 2017.33 1356.86 2039.07 1326.27 2062.09 1296.74 2086.47 1268.2 2083.71 1268.2 2080.96 1268.26 2078.21 1268.26 2110.43 1306.52 2139.38 1347.36 2164.92 1390.31 2166.92 1393.71 2171.37 1394.06 2174.18 1391.49 2192.82 1374.38 2209.28 1355.22 2223.52 1334.24 2220.12 1334.24 2216.72 1334.24 2213.38 1334.24 2222.93 1347.07 2233.3 1359.14 2244.73 1370.33 2246.96 1372.5 2250.88 1372.62 2252.99 1370.27 2266.64 1355.51 2279.3 1339.92 2291.14 1323.63 2287.74 1323.63 2284.34 1323.63 2281 1323.63 2297.17 1346.66 2316.27 1367.17 2338.19 1384.75 2340.65 1386.74 2344.1 1387.15 2346.45 1384.69 2430.82 1297.85 2513.97 1209.84 2595.82 1120.61 2619.03 1095.29 2642.11 1069.92 2665.08 1044.43 2670.12 1038.87 2661.8 1030.61 2656.76 1036.23 2575.67 1126.11 2493.28 1214.83 2409.61 1302.36 2385.88 1327.15 2362.09 1351.88 2338.13 1376.49 2340.88 1376.49 2343.64 1376.43 2346.39 1376.43 2325.3 1359.55 2306.66 1339.92 2291.08 1317.83 2288.38 1313.97 2283.64 1314.14 2280.94 1317.83 2269.75 1333.3 2257.62 1348.01 2244.61 1362.07 2247.37 1362.07 2250.12 1362.01 2252.87 1362.01 2242.21 1351.58 2232.37 1340.39 2223.46 1328.44 2220.71 1324.75 2215.96 1324.51 2213.32 1328.44 2199.67 1348.54 2183.73 1366.82 2165.86 1383.22 2168.97 1383.63 2172.01 1383.99 2175.12 1384.4 2148.99 1340.51 2119.34 1298.91 2086.47 1259.88 2084.53 1257.6 2080.08 1257.72 2078.21 1259.94 2053.19 1289.24 2029.51 1319.59 2007.19 1351 2009.83 1350.29 2012.52 1349.53 2015.16 1348.83 2004.91 1341.45 1994.65 1334.06 1984.4 1326.74 1981.7 1324.81 1978.01 1326.56 1976.43 1328.91 1960.32 1352.7 1944.2 1376.49 1928.09 1400.27 1930.73 1399.57 1933.42 1398.81 1936.06 1398.11 1917.31 1385.92 1897.91 1374.67 1877.99 1364.47 1874.94 1362.95 1871.9 1363.95 1870.02 1366.64 1836.98 1413.28 1803.87 1459.92 1770.82 1506.62 1766.37 1512.83 1776.62 1518.63 1780.96 1512.48zM1842.71 982.909C1841.89 1017.6 1843.18 1052.23 1846.58 1086.74 1847.34 1094.18 1859.06 1094.3 1858.3 1086.8 1854.9 1052.28 1853.61 1017.6 1854.43 982.967 1854.61 975.409 1842.89 975.409 1842.71 982.909z"></path><path fill="#31DECD" d="M1842.54 982.324C1853.97 979.98 1865.98 977.52 1877.52 980.508 1886.31 982.793 1894.51 988.594 1896.51 997.969 1898.38 1006.64 1892.58 1013.44 1885.67 1017.66 1881.56 1020.18 1877.17 1022.05 1872.54 1023.4 1867.91 1024.75 1862.52 1025.92 1857.89 1023.87 1855.02 1022.58 1851.56 1023.11 1849.92 1026.04 1848.46 1028.55 1849.22 1032.77 1852.09 1034 1862.7 1038.63 1873.6 1035.94 1883.79 1031.6 1892.35 1027.97 1900.9 1022.34 1905.35 1013.96 1910.04 1005.06 1909.28 994.512 1904.18 985.957 1898.79 976.816 1889.24 971.074 1879.05 968.789 1865.86 965.859 1852.5 968.262 1839.55 970.957 1832.17 972.539 1835.16 983.848 1842.54 982.324zM1943.03 986.136C1941.21 1019.65 1941.68 1053.28 1944.49 1086.74 1945.14 1094.24 1956.86 1094.3 1956.21 1086.8 1953.4 1053.34 1952.87 1019.71 1954.75 986.195 1955.21 978.636 1943.44 978.636 1943.03 986.136z"></path><path fill="#31DECD" d="M1952.82 987.774C1965.24 984.727 2004.79 984.493 1996.7 1006.88 1990.96 1022.7 1971.1 1027.73 1956.39 1030.14 1951.53 1030.96 1950.42 1038.87 1954.99 1040.92 1977.66 1051.11 1998.99 1064.24 2018.15 1080.12 2023.89 1084.86 2032.21 1076.6 2026.35 1071.8 2006.37 1055.27 1984.46 1041.39 1960.79 1030.78 1960.32 1034.36 1959.85 1037.93 1959.38 1041.56 1979.95 1038.16 2006.72 1028.2 2009.36 1004.06 2012.58 974.415 1969.75 971.661 1949.95 976.465 1942.51 978.223 1945.49 989.59 1952.82 987.774zM2090.75 975.647C2072.23 971.663 2052.66 979.925 2043.7 996.858 2034.32 1014.61 2039.36 1035.76 2051.25 1051 2062.74 1065.65 2082.31 1070.86 2099.59 1063.89 2116 1057.33 2126.2 1040.51 2126.37 1023.11 2126.61 1002.6 2112.43 985.081 2093.85 977.815 2090.86 976.644 2087.47 979.163 2086.7 981.976 2085.77 985.315 2087.93 988.011 2090.86 989.124 2102.76 993.811 2112.13 1004.77 2114.3 1017.42 2116.41 1029.73 2110.9 1043.79 2100.24 1050.53 2088.99 1057.62 2073.58 1056.8 2063.85 1047.48 2053.66 1037.7 2047.5 1021.35 2051.84 1007.58 2056.59 992.522 2072.41 983.675 2087.76 986.956 2095.08 988.538 2098.13 977.229 2090.75 975.647zM2145.4 993.635C2146.23 1021.17 2148.16 1048.65 2151.21 1076.02 2151.56 1079.18 2153.61 1081.88 2157.01 1081.94 2159.88 1081.99 2163.28 1079.24 2162.92 1076.14 2159.88 1048.77 2157.94 1021.29 2157.12 993.753 2156.89 986.135 2145.17 986.077 2145.4 993.635z"></path><path fill="#31DECD" d="M2153.56 988.826C2172.13 988.123 2190.65 987.361 2209.22 986.658 2216.78 986.365 2216.84 974.646 2209.28 974.939 2190.71 975.642 2172.19 976.404 2153.62 977.107 2146.06 977.4 2146 989.119 2153.56 988.826zM2159.95 1032.95C2173.13 1032.95 2186.37 1032.89 2199.56 1032.89 2202.72 1032.89 2205.41 1030.25 2205.47 1027.09 2205.47 1023.92 2202.84 1021.17 2199.67 1021.17 2186.49 1021.17 2173.25 1021.23 2160.06 1021.23 2156.9 1021.23 2154.2 1023.86 2154.15 1027.03 2154.09 1030.25 2156.78 1033 2159.95 1032.95zM2257.97 982.915C2255.39 1014.85 2256.57 1046.9 2261.08 1078.66 2262.13 1086.1 2273.5 1083.11 2272.45 1075.73 2268.05 1045.02 2267.23 1013.91 2269.69 983.032 2270.28 975.474 2258.56 975.474 2257.97 982.915zM2314.1 987.594C2343.63 986.246 2373.1 983.668 2402.4 979.918 2405.56 979.508 2407.26 975.582 2406.62 972.77 2405.8 969.371 2402.57 968.199 2399.47 968.551 2371.17 972.184 2342.69 974.586 2314.16 975.875 2306.6 976.227 2306.54 987.946 2314.1 987.594z"></path><path fill="#31DECD" d="M2349.5 990.35C2352.31 1015.96 2355.47 1041.44 2359.11 1066.93C2359.58 1070.1 2363.44 1071.85 2366.26 1071.15C2369.6 1070.27 2370.88 1067.17 2370.47 1064C2367.02 1039.51 2363.97 1015.02 2361.28 990.408C2360.92 987.244 2358.87 984.549 2355.47 984.49C2352.49 984.49 2349.15 987.244 2349.5 990.35Z"></path></svg>